<mxfile host="app.diagrams.net" modified="2021-01-19T05:35:16.560Z" agent="5.0 (Windows NT 10.0; WOW64) AppleWebKit/537.36 (KHTML, like Gecko) Chrome/69.0.3497.100 Safari/537.36" etag="UbAlEvot10FNZ5y0bmQt" version="14.2.4" type="github">
  <diagram id="C5RBs43oDa-KdzZeNtuy" name="Page-1">
    <mxGraphModel dx="942" dy="1720" grid="1" gridSize="10" guides="1" tooltips="1" connect="1" arrows="1" fold="1" page="1" pageScale="1" pageWidth="827" pageHeight="1169" math="0" shadow="0">
      <root>
        <mxCell id="WIyWlLk6GJQsqaUBKTNV-0" />
        <mxCell id="WIyWlLk6GJQsqaUBKTNV-1" parent="WIyWlLk6GJQsqaUBKTNV-0" />
        <mxCell id="9QjvxLiD0EqjnFh99o4U-10" style="edgeStyle=orthogonalEdgeStyle;rounded=0;orthogonalLoop=1;jettySize=auto;html=1;exitX=0.5;exitY=1;exitDx=0;exitDy=0;entryX=0.5;entryY=0;entryDx=0;entryDy=0;" edge="1" parent="WIyWlLk6GJQsqaUBKTNV-1" source="WIyWlLk6GJQsqaUBKTNV-3">
          <mxGeometry relative="1" as="geometry">
            <mxPoint x="414" y="110" as="targetPoint" />
          </mxGeometry>
        </mxCell>
        <mxCell id="WIyWlLk6GJQsqaUBKTNV-3" value="&lt;p style=&quot;line-height: 0%&quot;&gt;&lt;font style=&quot;font-size: 12px&quot;&gt;RNA-seq data(GSE155104)&lt;/font&gt;&lt;/p&gt;&lt;p style=&quot;text-align: left&quot;&gt;&lt;font style=&quot;font-size: 12px&quot;&gt;&lt;span style=&quot;background-color: rgb(255 , 255 , 255) ; font-family: &amp;#34;verdana&amp;#34; , &amp;#34;arial&amp;#34; , &amp;#34;helvetica&amp;#34; , sans-serif&quot;&gt;&amp;nbsp; HIF-1a knockout&lt;/span&gt;&lt;/font&gt;&lt;/p&gt;&lt;p style=&quot;text-align: left&quot;&gt;&lt;font style=&quot;font-size: 12px&quot;&gt;&lt;span style=&quot;font-family: &amp;#34;verdana&amp;#34; , &amp;#34;arial&amp;#34; , &amp;#34;helvetica&amp;#34; , sans-serif ; background-color: rgb(255 , 255 , 255)&quot;&gt;&amp;nbsp; MC-38 cell line derived orthotopic tumor&lt;/span&gt;&lt;/font&gt;&lt;span&gt;&amp;nbsp;&lt;/span&gt;&lt;/p&gt;&lt;p&gt;&lt;font style=&quot;font-size: 12px&quot;&gt;&lt;font style=&quot;font-size: 12px&quot;&gt;RNA-seq data(GSE50760)&lt;br&gt;&lt;/font&gt;&lt;/font&gt;&lt;/p&gt;&lt;p&gt;&lt;/p&gt;&lt;div style=&quot;text-align: left&quot;&gt;&lt;span style=&quot;background-color: rgb(255 , 255 , 255) ; font-family: &amp;#34;verdana&amp;#34; , &amp;#34;arial&amp;#34; , &amp;#34;helvetica&amp;#34; , sans-serif&quot;&gt;&amp;nbsp; primary colorectal cancer&amp;nbsp;&lt;/span&gt;&lt;/div&gt;&lt;font style=&quot;font-size: 12px&quot;&gt;&lt;div style=&quot;text-align: left&quot;&gt;&lt;span style=&quot;background-color: rgb(255 , 255 , 255) ; font-family: &amp;#34;verdana&amp;#34; , &amp;#34;arial&amp;#34; , &amp;#34;helvetica&amp;#34; , sans-serif&quot;&gt;&amp;nbsp; normal colon&lt;/span&gt;&lt;/div&gt;&lt;font style=&quot;font-size: 12px&quot;&gt;&lt;div style=&quot;text-align: left&quot;&gt;&lt;span style=&quot;background-color: rgb(255 , 255 , 255) ; font-family: &amp;#34;verdana&amp;#34; , &amp;#34;arial&amp;#34; , &amp;#34;helvetica&amp;#34; , sans-serif&quot;&gt;&amp;nbsp; metastasized cancer&lt;/span&gt;&lt;/div&gt;&lt;/font&gt;&lt;/font&gt;&lt;p&gt;&lt;/p&gt;&lt;p&gt;&lt;/p&gt;" style="rounded=1;whiteSpace=wrap;html=1;fontSize=12;glass=0;strokeWidth=1;shadow=0;" parent="WIyWlLk6GJQsqaUBKTNV-1" vertex="1">
          <mxGeometry x="270" y="-70" width="302" height="150" as="geometry" />
        </mxCell>
        <mxCell id="9QjvxLiD0EqjnFh99o4U-0" value="transcripts assembly" style="text;whiteSpace=wrap;html=1;" vertex="1" parent="WIyWlLk6GJQsqaUBKTNV-1">
          <mxGeometry x="270" y="80" width="130" height="30" as="geometry" />
        </mxCell>
        <mxCell id="9QjvxLiD0EqjnFh99o4U-1" value="Remove potential&#xa;coding transcripts" style="text;whiteSpace=wrap;html=1;" vertex="1" parent="WIyWlLk6GJQsqaUBKTNV-1">
          <mxGeometry x="270" y="170" width="120" height="40" as="geometry" />
        </mxCell>
        <mxCell id="9QjvxLiD0EqjnFh99o4U-2" value="Renmove short&#xa;transcripts" style="text;whiteSpace=wrap;html=1;" vertex="1" parent="WIyWlLk6GJQsqaUBKTNV-1">
          <mxGeometry x="450" y="170" width="110" height="40" as="geometry" />
        </mxCell>
        <mxCell id="9QjvxLiD0EqjnFh99o4U-3" value="Remove adjacent to&#xa;mRNA(1kb)" style="text;whiteSpace=wrap;html=1;" vertex="1" parent="WIyWlLk6GJQsqaUBKTNV-1">
          <mxGeometry x="258" y="210" width="130" height="40" as="geometry" />
        </mxCell>
        <mxCell id="9QjvxLiD0EqjnFh99o4U-15" value="" style="edgeStyle=orthogonalEdgeStyle;rounded=0;orthogonalLoop=1;jettySize=auto;html=1;" edge="1" parent="WIyWlLk6GJQsqaUBKTNV-1" source="9QjvxLiD0EqjnFh99o4U-5" target="9QjvxLiD0EqjnFh99o4U-14">
          <mxGeometry relative="1" as="geometry" />
        </mxCell>
        <mxCell id="9QjvxLiD0EqjnFh99o4U-5" value="&lt;p&gt;&lt;span style=&quot;color: rgb(51 , 51 , 51) ; line-height: 26px ; background-color: rgb(247 , 248 , 250)&quot;&gt;&lt;font style=&quot;font-size: 12px&quot;&gt;Differential lncRNA and differential mRNA&lt;/font&gt;&lt;/span&gt;&lt;/p&gt;" style="whiteSpace=wrap;html=1;shadow=0;strokeWidth=1;spacing=6;spacingTop=-4;" vertex="1" parent="WIyWlLk6GJQsqaUBKTNV-1">
          <mxGeometry x="120" y="320" width="130" height="70" as="geometry" />
        </mxCell>
        <mxCell id="9QjvxLiD0EqjnFh99o4U-12" style="edgeStyle=orthogonalEdgeStyle;rounded=0;orthogonalLoop=1;jettySize=auto;html=1;exitX=0.5;exitY=1;exitDx=0;exitDy=0;entryX=0.5;entryY=0;entryDx=0;entryDy=0;" edge="1" parent="WIyWlLk6GJQsqaUBKTNV-1" source="9QjvxLiD0EqjnFh99o4U-11" target="9QjvxLiD0EqjnFh99o4U-5">
          <mxGeometry relative="1" as="geometry" />
        </mxCell>
        <mxCell id="9QjvxLiD0EqjnFh99o4U-16" style="edgeStyle=orthogonalEdgeStyle;rounded=0;orthogonalLoop=1;jettySize=auto;html=1;exitX=0.5;exitY=1;exitDx=0;exitDy=0;" edge="1" parent="WIyWlLk6GJQsqaUBKTNV-1" source="9QjvxLiD0EqjnFh99o4U-11">
          <mxGeometry relative="1" as="geometry">
            <mxPoint x="360" y="320" as="targetPoint" />
          </mxGeometry>
        </mxCell>
        <mxCell id="9QjvxLiD0EqjnFh99o4U-18" style="edgeStyle=orthogonalEdgeStyle;rounded=0;orthogonalLoop=1;jettySize=auto;html=1;exitX=0.5;exitY=1;exitDx=0;exitDy=0;" edge="1" parent="WIyWlLk6GJQsqaUBKTNV-1" source="9QjvxLiD0EqjnFh99o4U-11">
          <mxGeometry relative="1" as="geometry">
            <mxPoint x="510" y="320" as="targetPoint" />
          </mxGeometry>
        </mxCell>
        <mxCell id="9QjvxLiD0EqjnFh99o4U-20" style="edgeStyle=orthogonalEdgeStyle;rounded=0;orthogonalLoop=1;jettySize=auto;html=1;exitX=0.5;exitY=1;exitDx=0;exitDy=0;" edge="1" parent="WIyWlLk6GJQsqaUBKTNV-1" source="9QjvxLiD0EqjnFh99o4U-11">
          <mxGeometry relative="1" as="geometry">
            <mxPoint x="680" y="320" as="targetPoint" />
          </mxGeometry>
        </mxCell>
        <mxCell id="9QjvxLiD0EqjnFh99o4U-11" value="&lt;span&gt;lncRNA prediction&lt;/span&gt;" style="rounded=0;whiteSpace=wrap;html=1;" vertex="1" parent="WIyWlLk6GJQsqaUBKTNV-1">
          <mxGeometry x="354" y="110" width="120" height="60" as="geometry" />
        </mxCell>
        <mxCell id="9QjvxLiD0EqjnFh99o4U-14" value="&lt;p&gt;function analysis&lt;br&gt;&lt;/p&gt;" style="whiteSpace=wrap;html=1;shadow=0;strokeWidth=1;spacing=6;spacingTop=-4;align=left;" vertex="1" parent="WIyWlLk6GJQsqaUBKTNV-1">
          <mxGeometry x="125" y="420" width="120" height="60" as="geometry" />
        </mxCell>
        <mxCell id="9QjvxLiD0EqjnFh99o4U-17" value="lncRNA-mRNA network" style="rounded=0;whiteSpace=wrap;html=1;" vertex="1" parent="WIyWlLk6GJQsqaUBKTNV-1">
          <mxGeometry x="300" y="320" width="130" height="70" as="geometry" />
        </mxCell>
        <mxCell id="9QjvxLiD0EqjnFh99o4U-19" value="&lt;p&gt;&lt;span style=&quot;color: rgb(51 , 51 , 51) ; line-height: 26px ; background-color: rgb(247 , 248 , 250)&quot;&gt;&lt;font style=&quot;font-size: 12px&quot;&gt;CIS regulatory analysis&lt;/font&gt;&lt;/span&gt;&lt;/p&gt;" style="rounded=0;whiteSpace=wrap;html=1;" vertex="1" parent="WIyWlLk6GJQsqaUBKTNV-1">
          <mxGeometry x="460" y="320" width="130" height="70" as="geometry" />
        </mxCell>
        <mxCell id="9QjvxLiD0EqjnFh99o4U-21" value="&lt;div&gt;&lt;span style=&quot;background-color: rgb(247 , 248 , 250) ; color: rgb(51 , 51 , 51)&quot;&gt;Analysis of HIF1A knockout in clinical data Metastasized Cancer&lt;/span&gt;&lt;/div&gt;" style="rounded=0;whiteSpace=wrap;html=1;align=left;" vertex="1" parent="WIyWlLk6GJQsqaUBKTNV-1">
          <mxGeometry x="620" y="320" width="130" height="70" as="geometry" />
        </mxCell>
      </root>
    </mxGraphModel>
  </diagram>
</mxfile>
